<mxfile host="app.diagrams.net" modified="2023-05-24T17:37:26.575Z" agent="Mozilla/5.0 (Windows NT 10.0; Win64; x64) AppleWebKit/537.36 (KHTML, like Gecko) Chrome/113.0.0.0 Safari/537.36 Edg/113.0.1774.50" etag="1sXXHXdz5Srs8C8xJcy8" version="21.3.3" type="github">
  <diagram name="第 1 页" id="kA5nwrn9Iyu9ZlMpJHmj">
    <mxGraphModel dx="1050" dy="587" grid="1" gridSize="10" guides="1" tooltips="1" connect="1" arrows="1" fold="1" page="1" pageScale="1" pageWidth="827" pageHeight="1169" math="0" shadow="0">
      <root>
        <mxCell id="0" />
        <mxCell id="1" parent="0" />
        <mxCell id="8u6pSmdnze8ij-CWn7Zd-6" value="登录信息" style="edgeStyle=orthogonalEdgeStyle;rounded=0;orthogonalLoop=1;jettySize=auto;html=1;exitX=0.5;exitY=1;exitDx=0;exitDy=0;entryX=0.5;entryY=0;entryDx=0;entryDy=0;fontSize=14;fontStyle=0" parent="1" source="8u6pSmdnze8ij-CWn7Zd-1" target="8u6pSmdnze8ij-CWn7Zd-5" edge="1">
          <mxGeometry relative="1" as="geometry" />
        </mxCell>
        <mxCell id="8u6pSmdnze8ij-CWn7Zd-1" value="管理员" style="rounded=0;whiteSpace=wrap;html=1;fontSize=14;fontStyle=0" parent="1" vertex="1">
          <mxGeometry x="340" y="60" width="120" height="60" as="geometry" />
        </mxCell>
        <mxCell id="8u6pSmdnze8ij-CWn7Zd-9" style="edgeStyle=orthogonalEdgeStyle;rounded=0;orthogonalLoop=1;jettySize=auto;html=1;exitX=0.5;exitY=1;exitDx=0;exitDy=0;entryX=0.5;entryY=0;entryDx=0;entryDy=0;fontSize=14;fontStyle=0" parent="1" source="8u6pSmdnze8ij-CWn7Zd-5" target="8u6pSmdnze8ij-CWn7Zd-8" edge="1">
          <mxGeometry relative="1" as="geometry" />
        </mxCell>
        <mxCell id="lvLKIE20EcUrdREiJUor-5" style="edgeStyle=orthogonalEdgeStyle;rounded=0;orthogonalLoop=1;jettySize=auto;html=1;exitX=0;exitY=0.5;exitDx=0;exitDy=0;entryX=1;entryY=0.5;entryDx=0;entryDy=0;fontSize=14;fontStyle=0" parent="1" source="8u6pSmdnze8ij-CWn7Zd-5" target="lvLKIE20EcUrdREiJUor-1" edge="1">
          <mxGeometry relative="1" as="geometry" />
        </mxCell>
        <mxCell id="lvLKIE20EcUrdREiJUor-13" style="edgeStyle=orthogonalEdgeStyle;rounded=0;orthogonalLoop=1;jettySize=auto;html=1;exitX=1;exitY=0.5;exitDx=0;exitDy=0;entryX=0;entryY=0.5;entryDx=0;entryDy=0;fontSize=14;fontStyle=0" parent="1" source="8u6pSmdnze8ij-CWn7Zd-5" target="lvLKIE20EcUrdREiJUor-12" edge="1">
          <mxGeometry relative="1" as="geometry" />
        </mxCell>
        <mxCell id="8u6pSmdnze8ij-CWn7Zd-5" value="&lt;p style=&quot;margin: 4px 0px 0px; font-size: 14px;&quot;&gt;&lt;span style=&quot;font-size: 14px;&quot;&gt;P0&lt;/span&gt;&lt;/p&gt;&lt;hr style=&quot;font-size: 14px;&quot;&gt;&lt;div style=&quot;height: 2px; font-size: 14px;&quot;&gt;管理员登录&lt;/div&gt;" style="verticalAlign=top;align=center;overflow=fill;fontSize=14;fontFamily=Helvetica;html=1;whiteSpace=wrap;fontStyle=0;rounded=1;" parent="1" vertex="1">
          <mxGeometry x="330" y="170" width="140" height="60" as="geometry" />
        </mxCell>
        <mxCell id="8u6pSmdnze8ij-CWn7Zd-11" style="edgeStyle=orthogonalEdgeStyle;rounded=0;orthogonalLoop=1;jettySize=auto;html=1;exitX=0;exitY=0.5;exitDx=0;exitDy=0;entryX=1;entryY=0.5;entryDx=0;entryDy=0;fontSize=14;fontStyle=0" parent="1" source="8u6pSmdnze8ij-CWn7Zd-8" target="8u6pSmdnze8ij-CWn7Zd-10" edge="1">
          <mxGeometry relative="1" as="geometry" />
        </mxCell>
        <mxCell id="7A29ttCbS9l2kD4qwXbq-5" style="edgeStyle=orthogonalEdgeStyle;rounded=0;orthogonalLoop=1;jettySize=auto;html=1;exitX=0.5;exitY=1;exitDx=0;exitDy=0;entryX=0.5;entryY=0;entryDx=0;entryDy=0;" parent="1" source="8u6pSmdnze8ij-CWn7Zd-8" target="7A29ttCbS9l2kD4qwXbq-4" edge="1">
          <mxGeometry relative="1" as="geometry" />
        </mxCell>
        <mxCell id="8u6pSmdnze8ij-CWn7Zd-8" value="&lt;p style=&quot;margin: 4px 0px 0px; font-size: 14px;&quot;&gt;&lt;span style=&quot;font-size: 14px;&quot;&gt;P1&lt;/span&gt;&lt;/p&gt;&lt;hr style=&quot;font-size: 14px;&quot;&gt;&lt;div style=&quot;height: 2px; font-size: 14px;&quot;&gt;出租单管理&lt;/div&gt;" style="verticalAlign=top;align=center;overflow=fill;fontSize=14;fontFamily=Helvetica;html=1;whiteSpace=wrap;fontStyle=0;rounded=1;" parent="1" vertex="1">
          <mxGeometry x="330" y="280" width="140" height="60" as="geometry" />
        </mxCell>
        <mxCell id="8u6pSmdnze8ij-CWn7Zd-10" value="D1 出租单管理" style="shape=partialRectangle;whiteSpace=wrap;html=1;left=0;right=0;fillColor=none;fontSize=14;fontStyle=0" parent="1" vertex="1">
          <mxGeometry x="130" y="285" width="120" height="50" as="geometry" />
        </mxCell>
        <mxCell id="lvLKIE20EcUrdREiJUor-3" style="edgeStyle=orthogonalEdgeStyle;rounded=0;orthogonalLoop=1;jettySize=auto;html=1;exitX=0;exitY=0.5;exitDx=0;exitDy=0;entryX=0;entryY=0.5;entryDx=0;entryDy=0;fontSize=14;fontStyle=0" parent="1" source="lvLKIE20EcUrdREiJUor-1" target="lvLKIE20EcUrdREiJUor-2" edge="1">
          <mxGeometry relative="1" as="geometry" />
        </mxCell>
        <mxCell id="lvLKIE20EcUrdREiJUor-1" value="&lt;p style=&quot;margin: 4px 0px 0px; font-size: 14px;&quot;&gt;&lt;span style=&quot;font-size: 14px;&quot;&gt;P2&lt;/span&gt;&lt;/p&gt;&lt;hr style=&quot;font-size: 14px;&quot;&gt;&lt;div style=&quot;height: 2px; font-size: 14px;&quot;&gt;车辆管理&lt;/div&gt;" style="verticalAlign=top;align=center;overflow=fill;fontSize=14;fontFamily=Helvetica;html=1;whiteSpace=wrap;fontStyle=0;rounded=1;" parent="1" vertex="1">
          <mxGeometry x="110" y="170" width="140" height="60" as="geometry" />
        </mxCell>
        <mxCell id="lvLKIE20EcUrdREiJUor-9" value="车辆信息" style="edgeStyle=orthogonalEdgeStyle;rounded=0;orthogonalLoop=1;jettySize=auto;html=1;exitX=1;exitY=0.5;exitDx=0;exitDy=0;entryX=0;entryY=0.5;entryDx=0;entryDy=0;fontSize=14;fontStyle=0" parent="1" source="lvLKIE20EcUrdREiJUor-2" target="lvLKIE20EcUrdREiJUor-4" edge="1">
          <mxGeometry relative="1" as="geometry" />
        </mxCell>
        <mxCell id="lvLKIE20EcUrdREiJUor-2" value="D2 车辆记录" style="shape=partialRectangle;whiteSpace=wrap;html=1;left=0;right=0;fillColor=none;fontSize=14;fontStyle=0" parent="1" vertex="1">
          <mxGeometry x="130" y="400" width="120" height="50" as="geometry" />
        </mxCell>
        <mxCell id="7A29ttCbS9l2kD4qwXbq-10" style="edgeStyle=orthogonalEdgeStyle;rounded=0;orthogonalLoop=1;jettySize=auto;html=1;exitX=0.5;exitY=0;exitDx=0;exitDy=0;entryX=0.5;entryY=1;entryDx=0;entryDy=0;" parent="1" source="lvLKIE20EcUrdREiJUor-4" target="7A29ttCbS9l2kD4qwXbq-3" edge="1">
          <mxGeometry relative="1" as="geometry" />
        </mxCell>
        <mxCell id="lvLKIE20EcUrdREiJUor-4" value="&lt;p style=&quot;margin: 4px 0px 0px; font-size: 14px;&quot;&gt;&lt;span style=&quot;font-size: 14px;&quot;&gt;P0&lt;/span&gt;&lt;/p&gt;&lt;hr style=&quot;font-size: 14px;&quot;&gt;&lt;div style=&quot;height: 2px; font-size: 14px;&quot;&gt;管理员登录&lt;/div&gt;" style="verticalAlign=top;align=center;overflow=fill;fontSize=14;fontFamily=Helvetica;html=1;whiteSpace=wrap;fontStyle=0;rounded=1;" parent="1" vertex="1">
          <mxGeometry x="330" y="610" width="140" height="60" as="geometry" />
        </mxCell>
        <mxCell id="lvLKIE20EcUrdREiJUor-17" value="登录信息" style="edgeStyle=orthogonalEdgeStyle;rounded=0;orthogonalLoop=1;jettySize=auto;html=1;exitX=0.5;exitY=0;exitDx=0;exitDy=0;entryX=0.5;entryY=1;entryDx=0;entryDy=0;fontSize=14;fontStyle=0" parent="1" source="lvLKIE20EcUrdREiJUor-6" target="lvLKIE20EcUrdREiJUor-4" edge="1">
          <mxGeometry relative="1" as="geometry" />
        </mxCell>
        <mxCell id="lvLKIE20EcUrdREiJUor-6" value="管理员" style="rounded=0;whiteSpace=wrap;html=1;" parent="1" vertex="1">
          <mxGeometry x="340" y="730" width="120" height="60" as="geometry" />
        </mxCell>
        <mxCell id="lvLKIE20EcUrdREiJUor-15" style="edgeStyle=orthogonalEdgeStyle;rounded=0;orthogonalLoop=1;jettySize=auto;html=1;exitX=1;exitY=0.5;exitDx=0;exitDy=0;entryX=1;entryY=0.5;entryDx=0;entryDy=0;fontSize=14;fontStyle=0" parent="1" source="lvLKIE20EcUrdREiJUor-12" target="lvLKIE20EcUrdREiJUor-14" edge="1">
          <mxGeometry relative="1" as="geometry" />
        </mxCell>
        <mxCell id="lvLKIE20EcUrdREiJUor-12" value="&lt;p style=&quot;margin: 4px 0px 0px; font-size: 14px;&quot;&gt;&lt;span style=&quot;font-size: 14px;&quot;&gt;P3&lt;/span&gt;&lt;/p&gt;&lt;hr style=&quot;font-size: 14px;&quot;&gt;&lt;div style=&quot;height: 2px; font-size: 14px;&quot;&gt;客户管理&lt;/div&gt;" style="verticalAlign=top;align=center;overflow=fill;fontSize=14;fontFamily=Helvetica;html=1;whiteSpace=wrap;fontStyle=0;rounded=1;" parent="1" vertex="1">
          <mxGeometry x="550" y="170" width="140" height="60" as="geometry" />
        </mxCell>
        <mxCell id="lvLKIE20EcUrdREiJUor-16" value="客户信息" style="edgeStyle=orthogonalEdgeStyle;rounded=0;orthogonalLoop=1;jettySize=auto;html=1;exitX=0;exitY=0.5;exitDx=0;exitDy=0;entryX=1;entryY=0.5;entryDx=0;entryDy=0;fontSize=14;fontStyle=0" parent="1" source="lvLKIE20EcUrdREiJUor-14" target="lvLKIE20EcUrdREiJUor-4" edge="1">
          <mxGeometry relative="1" as="geometry" />
        </mxCell>
        <mxCell id="lvLKIE20EcUrdREiJUor-14" value="D3 客户记录" style="shape=partialRectangle;whiteSpace=wrap;html=1;left=0;right=0;fillColor=none;fontSize=14;fontStyle=0" parent="1" vertex="1">
          <mxGeometry x="560" y="400" width="120" height="50" as="geometry" />
        </mxCell>
        <mxCell id="7A29ttCbS9l2kD4qwXbq-9" value="" style="edgeStyle=orthogonalEdgeStyle;rounded=0;orthogonalLoop=1;jettySize=auto;html=1;exitX=0.5;exitY=0;exitDx=0;exitDy=0;entryX=0.5;entryY=1;entryDx=0;entryDy=0;" parent="1" source="7A29ttCbS9l2kD4qwXbq-3" target="7A29ttCbS9l2kD4qwXbq-4" edge="1">
          <mxGeometry relative="1" as="geometry" />
        </mxCell>
        <mxCell id="7A29ttCbS9l2kD4qwXbq-3" value="&lt;p style=&quot;margin: 4px 0px 0px; font-size: 14px;&quot;&gt;&lt;span style=&quot;font-size: 14px;&quot;&gt;P4&lt;/span&gt;&lt;/p&gt;&lt;hr style=&quot;font-size: 14px;&quot;&gt;&lt;div style=&quot;height: 2px; font-size: 14px;&quot;&gt;检查单管理&lt;/div&gt;" style="verticalAlign=top;align=center;overflow=fill;fontSize=14;fontFamily=Helvetica;html=1;whiteSpace=wrap;fontStyle=0;rounded=1;" parent="1" vertex="1">
          <mxGeometry x="330" y="500" width="140" height="60" as="geometry" />
        </mxCell>
        <mxCell id="7A29ttCbS9l2kD4qwXbq-8" value="出租单信息" style="edgeStyle=orthogonalEdgeStyle;rounded=0;orthogonalLoop=1;jettySize=auto;html=1;exitX=0.5;exitY=0;exitDx=0;exitDy=0;entryX=0.5;entryY=1;entryDx=0;entryDy=0;" parent="1" source="7A29ttCbS9l2kD4qwXbq-4" target="8u6pSmdnze8ij-CWn7Zd-8" edge="1">
          <mxGeometry relative="1" as="geometry" />
        </mxCell>
        <mxCell id="S38hmdSCtyBvsEPV3NpU-1" value="出租单信息" style="edgeStyle=orthogonalEdgeStyle;rounded=0;orthogonalLoop=1;jettySize=auto;html=1;exitX=0.5;exitY=1;exitDx=0;exitDy=0;entryX=0.5;entryY=0;entryDx=0;entryDy=0;" edge="1" parent="1" source="7A29ttCbS9l2kD4qwXbq-4" target="7A29ttCbS9l2kD4qwXbq-3">
          <mxGeometry relative="1" as="geometry" />
        </mxCell>
        <mxCell id="7A29ttCbS9l2kD4qwXbq-4" value="D4 检查单记录" style="shape=partialRectangle;whiteSpace=wrap;html=1;left=0;right=0;fillColor=none;fontSize=14;fontStyle=0" parent="1" vertex="1">
          <mxGeometry x="340" y="400" width="120" height="50" as="geometry" />
        </mxCell>
      </root>
    </mxGraphModel>
  </diagram>
</mxfile>
